# xmcd
#
# Track frame offsets:
#	150
#	13981
#	26659
#	38775
#	51268
#	64682
#	78236
#	92043
#	105943
#	118894
#	131348
#	143920
#	154080
#	166481
#	178829
#	192799
#	206890
#	219440
#	232487
#	246382
#	260829
#	274858
#	286661
#
# Disc length: 3993 seconds
#
# Revision: 0
# Processed by: cddbd v1.5.2PL0 Copyright (c) Steve Scherf et al.
# Submitted via: audiograbber 1.83.01
#
DISCID=5b0f9717
DTITLE=Various Artist - Blues Women 1944 to 1952
DYEAR=2003
DGENRE=Blues
TTITLE0=Miss Rhapsody (Viola Wells) - Downhearted Blues
TTITLE1=Miss Rhapsody (Viola Wells) - Sweet Man
TTITLE2=Miss Rhapsody (Viola Wells) - Blues In My Heart
TTITLE3=Miss Rhapsody (Viola Wells) - Sugar
TTITLE4=Miss Rhapsody and Orchestra - The Night Before Judgement Day
TTITLE5=Miss Rhapsody and Orchestra - He May Be Your Man
TTITLE6=Miss Rhapsody and Orchestra - I Fell For You
TTITLE7=Albinia Jones with Don Byas' Swing Seven - Evil Gal Blues
TTITLE8=Albinia Jones with Don Byas' Swing Seven - Salty Papa Blues
TTITLE9=Albinia Jones with Don Byas' Swing Seven - Albinia's Blues
TTITLE10=Etta Jones with J.C. Heard and his band - I Sold My Heart To The Junkm
TTITLE10=an
TTITLE11=Annisteen Allen with Lucky Millinder and his Orchestra - Moanin' The B
TTITLE11=lues
TTITLE12=Little Miss Sharecropper (Lavern Baker) - I'll Try
TTITLE13=Little Miss Sharecropper (Lavern Baker) - I Want To Rock
TTITLE14=Little Miss Sharecropper (Lavern Baker) - Take Out Some Time
TTITLE15=Varetta Dillard - Hurry Up
TTITLE16=Varetta Dillard - Please Tell Me Baby
TTITLE17=Varetta Dillard - A Letter In Blues
TTITLE18=Varetta Dillard - I Cried And Cried
TTITLE19=Mabel Scott - No More Cryin' Blues
TTITLE20=Mabel Scott - Boogie Woogie Choo Cho Train
TTITLE21=Mabel Scott - Somebody Goofed
TTITLE22=Mabel Scott - Catch Em Young Treat Em Rough Tell Em Nothing
EXTD=
EXTT0=
EXTT1=
EXTT2=
EXTT3=
EXTT4=
EXTT5=
EXTT6=
EXTT7=
EXTT8=
EXTT9=
EXTT10=
EXTT11=
EXTT12=
EXTT13=
EXTT14=
EXTT15=
EXTT16=
EXTT17=
EXTT18=
EXTT19=
EXTT20=
EXTT21=
EXTT22=
PLAYORDER=
